# xmcd
#
# Track frame offsets:
#	150
#	12344
#	31575
#	54620
#	74443
#	94078
#	119879
#	138976
#	159767
#	177523
#	195228
#
# Disc length: 2896 seconds
#
# Revision: 0
# Processed by: cddbd v1.4PL0 Copyright (c) Steve Scherf et al.
# Submitted via: dBpowerAMP V4.0
#
DISCID=8f0b4e0b
DTITLE=Ben Harper - Pleasure and Pain
DYEAR=1900
DGENRE=Blues
TTITLE0=Whipping Boy
TTITLE1=Jesus on the Main Line
TTITLE2=Pay the Man
TTITLE3=Quarter of a Man
TTITLE4=Mama's Got a Girlfriend Now
TTITLE5=Angel From Montgomery
TTITLE6=Click Yo' Heels
TTITLE7=You Should Have Come to Me
TTITLE8=Dust My Broom
TTITLE9=Sweet Home Chicago
TTITLE10=Pleasure and Pain
EXTD=
EXTT0=
EXTT1=
EXTT2=
EXTT3=
EXTT4=
EXTT5=
EXTT6=
EXTT7=
EXTT8=
EXTT9=
EXTT10=
PLAYORDER=
